<svg width="106" height="106" viewBox="0 0 106 106" fill="none" xmlns="http://www.w3.org/2000/svg">
<g filter="url(#filter0_f_615_18)">
<rect width="100" height="100" transform="translate(3 3)" fill="white"/>
<g filter="url(#filter1_fg_615_18)">
<path d="M23.96 74.576C22.168 74.576 20.7813 74.0427 19.8 72.976C18.8187 71.9093 18.328 70.3733 18.328 68.368V48.144C18.328 46.1387 18.8187 44.6027 19.8 43.536C20.7813 42.4693 22.168 41.936 23.96 41.936C25.7947 41.936 27.2027 42.4693 28.184 43.536C29.208 44.6027 29.72 46.1387 29.72 48.144V68.368C29.72 70.3733 29.2293 71.9093 28.248 72.976C27.2667 74.0427 25.8373 74.576 23.96 74.576ZM23.96 37.392C21.9547 37.392 20.3973 36.9227 19.288 35.984C18.2213 35.0453 17.688 33.68 17.688 31.888C17.688 30.1387 18.2213 28.7947 19.288 27.856C20.3973 26.9173 21.9547 26.448 23.96 26.448C26.0507 26.448 27.6293 26.9173 28.696 27.856C29.7627 28.7947 30.296 30.1387 30.296 31.888C30.296 33.68 29.7627 35.0453 28.696 35.984C27.6293 36.9227 26.0507 37.392 23.96 37.392ZM43.112 74.704C41.2347 74.704 39.3147 74.5547 37.352 74.256C35.432 74 33.6827 73.5093 32.104 72.784C31.0373 72.3573 30.2693 71.7813 29.8 71.056C29.3733 70.3307 29.16 69.5627 29.16 68.752C29.2027 67.9413 29.4373 67.216 29.864 66.576C30.3333 65.8933 30.9307 65.424 31.656 65.168C32.424 64.8693 33.2773 64.8907 34.216 65.232C36.008 65.872 37.608 66.3413 39.016 66.64C40.4667 66.896 41.8533 67.024 43.176 67.024C44.7547 67.024 45.8853 66.8107 46.568 66.384C47.2507 65.9147 47.592 65.3173 47.592 64.592C47.592 63.952 47.3573 63.4613 46.888 63.12C46.4613 62.7787 45.8427 62.544 45.032 62.416L37.928 61.264C35.2827 60.7947 33.2347 59.8347 31.784 58.384C30.3333 56.8907 29.608 54.9493 29.608 52.56C29.608 50.3413 30.2267 48.4427 31.464 46.864C32.744 45.2427 34.472 44.0053 36.648 43.152C38.8667 42.256 41.4053 41.808 44.264 41.808C46.184 41.808 47.9333 41.9573 49.512 42.256C51.0907 42.512 52.6267 43.0027 54.12 43.728C55.0587 44.112 55.72 44.6667 56.104 45.392C56.488 46.1173 56.6373 46.8853 56.552 47.696C56.4667 48.464 56.1893 49.1893 55.72 49.872C55.2933 50.512 54.696 50.96 53.928 51.216C53.16 51.4293 52.264 51.3653 51.24 51.024C49.832 50.4693 48.5733 50.064 47.464 49.808C46.3973 49.552 45.3947 49.424 44.456 49.424C42.7067 49.424 41.4693 49.6587 40.744 50.128C40.0187 50.5973 39.656 51.1947 39.656 51.92C39.656 52.4747 39.848 52.944 40.232 53.328C40.616 53.6693 41.2133 53.904 42.024 54.032L49.128 55.248C51.8587 55.6747 53.9493 56.6133 55.4 58.064C56.8933 59.472 57.64 61.392 57.64 63.824C57.64 67.28 56.3173 69.968 53.672 71.888C51.0267 73.7653 47.5067 74.704 43.112 74.704ZM72.494 74.704C68.9953 74.704 65.9447 74.0427 63.342 72.72C60.7393 71.3973 58.7127 69.4987 57.262 67.024C55.8113 64.5493 55.086 61.6267 55.086 58.256C55.086 55.696 55.4913 53.4133 56.302 51.408C57.1127 49.36 58.286 47.632 59.822 46.224C61.358 44.7733 63.1927 43.6853 65.326 42.96C67.4593 42.192 69.8487 41.808 72.494 41.808C75.9927 41.808 79.0433 42.4693 81.646 43.792C84.2487 45.1147 86.254 47.0133 87.662 49.488C89.1127 51.92 89.838 54.8427 89.838 58.256C89.838 60.7733 89.4327 63.056 88.622 65.104C87.8113 67.152 86.638 68.9013 85.102 70.352C83.6087 71.76 81.774 72.848 79.598 73.616C77.4647 74.3413 75.0967 74.704 72.494 74.704ZM72.494 66.32C73.646 66.32 74.67 66.0427 75.566 65.488C76.462 64.8907 77.1447 64.016 77.614 62.864C78.126 61.6693 78.382 60.1333 78.382 58.256C78.382 55.3973 77.8273 53.3493 76.718 52.112C75.6087 50.832 74.2007 50.192 72.494 50.192C71.342 50.192 70.318 50.4693 69.422 51.024C68.526 51.5787 67.822 52.4533 67.31 53.648C66.798 54.8 66.542 56.336 66.542 58.256C66.542 61.072 67.0967 63.12 68.206 64.4C69.3153 65.68 70.7447 66.32 72.494 66.32Z" fill="black"/>
</g>
</g>
<defs>
<filter id="filter0_f_615_18" x="0" y="0" width="106" height="106" filterUnits="userSpaceOnUse" color-interpolation-filters="sRGB">
<feFlood flood-opacity="0" result="BackgroundImageFix"/>
<feBlend mode="normal" in="SourceGraphic" in2="BackgroundImageFix" result="shape"/>
<feGaussianBlur stdDeviation="1.5" result="effect1_foregroundBlur_615_18"/>
</filter>
<filter id="filter1_fg_615_18" x="11.688" y="20.4478" width="84.15" height="60.2563" filterUnits="userSpaceOnUse" color-interpolation-filters="sRGB">
<feFlood flood-opacity="0" result="BackgroundImageFix"/>
<feBlend mode="normal" in="SourceGraphic" in2="BackgroundImageFix" result="shape"/>
<feGaussianBlur stdDeviation="3" result="effect1_foregroundBlur_615_18"/>
<feTurbulence type="fractalNoise" baseFrequency="5 5" numOctaves="3" seed="7077" />
<feDisplacementMap in="effect1_foregroundBlur_615_18" scale="2" xChannelSelector="R" yChannelSelector="G" result="displacedImage" width="100%" height="100%" />
<feMerge result="effect2_texture_615_18">
<feMergeNode in="displacedImage"/>
</feMerge>
</filter>
</defs>
</svg>
