<svg width="85" height="61" viewBox="0 0 85 61" fill="none" xmlns="http://www.w3.org/2000/svg">
<g filter="url(#filter0_fg_615_13)">
<path d="M12.272 54.1282C10.48 54.1282 9.09335 53.5949 8.11201 52.5282C7.13068 51.4616 6.64001 49.9256 6.64001 47.9202V27.6962C6.64001 25.6909 7.13068 24.1549 8.11201 23.0882C9.09335 22.0216 10.48 21.4882 12.272 21.4882C14.1067 21.4882 15.5147 22.0216 16.496 23.0882C17.52 24.1549 18.032 25.6909 18.032 27.6962V47.9202C18.032 49.9256 17.5413 51.4616 16.56 52.5282C15.5787 53.5949 14.1493 54.1282 12.272 54.1282ZM12.272 16.9442C10.2667 16.9442 8.70935 16.4749 7.60001 15.5362C6.53335 14.5976 6.00001 13.2322 6.00001 11.4402C6.00001 9.69091 6.53335 8.34691 7.60001 7.40825C8.70935 6.46958 10.2667 6.00024 12.272 6.00024C14.3627 6.00024 15.9413 6.46958 17.008 7.40825C18.0747 8.34691 18.608 9.69091 18.608 11.4402C18.608 13.2322 18.0747 14.5976 17.008 15.5362C15.9413 16.4749 14.3627 16.9442 12.272 16.9442ZM31.424 54.2562C29.5467 54.2562 27.6267 54.1069 25.664 53.8082C23.744 53.5522 21.9947 53.0616 20.416 52.3362C19.3493 51.9096 18.5813 51.3336 18.112 50.6082C17.6853 49.8829 17.472 49.1149 17.472 48.3042C17.5147 47.4936 17.7493 46.7682 18.176 46.1282C18.6453 45.4456 19.2427 44.9762 19.968 44.7202C20.736 44.4216 21.5893 44.4429 22.528 44.7842C24.32 45.4242 25.92 45.8936 27.328 46.1922C28.7787 46.4482 30.1653 46.5762 31.488 46.5762C33.0667 46.5762 34.1973 46.3629 34.88 45.9362C35.5627 45.4669 35.904 44.8696 35.904 44.1442C35.904 43.5042 35.6693 43.0136 35.2 42.6722C34.7733 42.3309 34.1547 42.0962 33.344 41.9682L26.24 40.8162C23.5947 40.3469 21.5467 39.3869 20.096 37.9362C18.6453 36.4429 17.92 34.5016 17.92 32.1122C17.92 29.8936 18.5387 27.9949 19.776 26.4162C21.056 24.7949 22.784 23.5576 24.96 22.7042C27.1787 21.8082 29.7173 21.3602 32.576 21.3602C34.496 21.3602 36.2453 21.5096 37.824 21.8082C39.4027 22.0642 40.9387 22.5549 42.432 23.2802C43.3707 23.6642 44.032 24.2189 44.416 24.9442C44.8 25.6696 44.9493 26.4376 44.864 27.2482C44.7787 28.0162 44.5013 28.7416 44.032 29.4242C43.6053 30.0642 43.008 30.5122 42.24 30.7682C41.472 30.9816 40.576 30.9176 39.552 30.5762C38.144 30.0216 36.8853 29.6162 35.776 29.3602C34.7093 29.1042 33.7067 28.9762 32.768 28.9762C31.0187 28.9762 29.7813 29.2109 29.056 29.6802C28.3307 30.1496 27.968 30.7469 27.968 31.4722C27.968 32.0269 28.16 32.4962 28.544 32.8802C28.928 33.2216 29.5253 33.4562 30.336 33.5842L37.44 34.8002C40.1707 35.2269 42.2613 36.1656 43.712 37.6162C45.2053 39.0242 45.952 40.9442 45.952 43.3762C45.952 46.8322 44.6293 49.5202 41.984 51.4402C39.3387 53.3176 35.8187 54.2562 31.424 54.2562ZM60.806 54.2562C57.3073 54.2562 54.2567 53.5949 51.654 52.2722C49.0513 50.9496 47.0247 49.0509 45.574 46.5762C44.1233 44.1016 43.398 41.1789 43.398 37.8082C43.398 35.2482 43.8033 32.9656 44.614 30.9602C45.4247 28.9122 46.598 27.1842 48.134 25.7762C49.67 24.3256 51.5047 23.2376 53.638 22.5122C55.7713 21.7442 58.1607 21.3602 60.806 21.3602C64.3047 21.3602 67.3553 22.0216 69.958 23.3442C72.5607 24.6669 74.566 26.5656 75.974 29.0402C77.4247 31.4722 78.15 34.3949 78.15 37.8082C78.15 40.3256 77.7447 42.6082 76.934 44.6562C76.1233 46.7042 74.95 48.4536 73.414 49.9042C71.9207 51.3122 70.086 52.4002 67.91 53.1682C65.7767 53.8936 63.4087 54.2562 60.806 54.2562ZM60.806 45.8722C61.958 45.8722 62.982 45.5949 63.878 45.0402C64.774 44.4429 65.4567 43.5682 65.926 42.4162C66.438 41.2216 66.694 39.6856 66.694 37.8082C66.694 34.9496 66.1393 32.9016 65.03 31.6642C63.9207 30.3842 62.5127 29.7442 60.806 29.7442C59.654 29.7442 58.63 30.0216 57.734 30.5762C56.838 31.1309 56.134 32.0056 55.622 33.2002C55.11 34.3522 54.854 35.8882 54.854 37.8082C54.854 40.6242 55.4087 42.6722 56.518 43.9522C57.6273 45.2322 59.0567 45.8722 60.806 45.8722Z" fill="black"/>
</g>
<defs>
<filter id="filter0_fg_615_13" x="0" y="0" width="84.15" height="60.2563" filterUnits="userSpaceOnUse" color-interpolation-filters="sRGB">
<feFlood flood-opacity="0" result="BackgroundImageFix"/>
<feBlend mode="normal" in="SourceGraphic" in2="BackgroundImageFix" result="shape"/>
<feGaussianBlur stdDeviation="3" result="effect1_foregroundBlur_615_13"/>
<feTurbulence type="fractalNoise" baseFrequency="5 5" numOctaves="3" seed="7077" />
<feDisplacementMap in="effect1_foregroundBlur_615_13" scale="2" xChannelSelector="R" yChannelSelector="G" result="displacedImage" width="100%" height="100%" />
<feMerge result="effect2_texture_615_13">
<feMergeNode in="displacedImage"/>
</feMerge>
</filter>
</defs>
</svg>
